<?xml version="1.0" encoding="UTF-8" standalone="no"?>
<!DOCTYPE svg PUBLIC "-//W3C//DTD SVG 1.1//EN" "http://www.w3.org/Graphics/SVG/1.1/DTD/svg11.dtd">
<svg width="100%" height="100%" viewBox="0 0 1000 1000" version="1.1" xmlns="http://www.w3.org/2000/svg" xmlns:xlink="http://www.w3.org/1999/xlink" xml:space="preserve" xmlns:serif="http://www.serif.com/" style="fill-rule:evenodd;clip-rule:evenodd;stroke-linejoin:round;stroke-miterlimit:2;">
    <g transform="matrix(1,0,0,1,16.5,16.5)">
        <path d="M967,241.75C967,108.325 858.675,0 725.25,0L241.75,0C108.325,0 0,108.325 0,241.75L0,725.25C0,858.675 108.325,967 241.75,967L725.25,967C858.675,967 967,858.675 967,725.25L967,241.75Z" style="fill:rgb(68,224,255);"/>
    </g>
    <g transform="matrix(4.19302e-17,-0.684772,0.684772,4.19302e-17,-199.992,897.063)">
        <path d="M766,667.375C766,609.217 718.783,562 660.625,562L357.375,562C299.217,562 252,609.217 252,667.375L252,878.125C252,936.283 299.217,983.5 357.375,983.5L660.625,983.5C718.783,983.5 766,936.283 766,878.125L766,667.375Z" style="fill:rgb(171,171,171);"/>
    </g>
    <g transform="matrix(4.19302e-17,-0.684772,0.684772,4.19302e-17,-231.253,872.438)">
        <path d="M766,667.375C766,609.217 718.783,562 660.625,562L357.375,562C299.217,562 252,609.217 252,667.375L252,878.125C252,936.283 299.217,983.5 357.375,983.5L660.625,983.5C718.783,983.5 766,936.283 766,878.125L766,667.375Z" style="fill:white;"/>
    </g>
    <g transform="matrix(4.19302e-17,-0.684772,0.684772,4.19302e-17,141.677,1013.73)">
        <path d="M766,667.375C766,609.217 718.783,562 660.625,562L357.375,562C299.217,562 252,609.217 252,667.375L252,878.125C252,936.283 299.217,983.5 357.375,983.5L660.625,983.5C718.783,983.5 766,936.283 766,878.125L766,667.375Z" style="fill:rgb(171,171,171);"/>
    </g>
    <g transform="matrix(4.19302e-17,-0.684772,0.684772,4.19302e-17,110.415,989.109)">
        <path d="M766,667.375C766,609.217 718.783,562 660.625,562L357.375,562C299.217,562 252,609.217 252,667.375L252,878.125C252,936.283 299.217,983.5 357.375,983.5L660.625,983.5C718.783,983.5 766,936.283 766,878.125L766,667.375Z" style="fill:white;"/>
    </g>
    <g transform="matrix(4.19302e-17,-0.684772,0.684772,4.19302e-17,191.869,629.872)">
        <circle cx="589.5" cy="200.5" r="167.5" style="fill:rgb(171,171,171);"/>
    </g>
    <g transform="matrix(4.19302e-17,-0.684772,0.684772,4.19302e-17,160.607,605.247)">
        <circle cx="589.5" cy="200.5" r="167.5" style="fill:white;"/>
    </g>
    <g transform="matrix(4.19302e-17,-0.684772,0.684772,4.19302e-17,533.538,746.543)">
        <circle cx="589.5" cy="200.5" r="167.5" style="fill:rgb(171,171,171);"/>
    </g>
    <g transform="matrix(4.19302e-17,-0.684772,0.684772,4.19302e-17,502.276,721.918)">
        <circle cx="589.5" cy="200.5" r="167.5" style="fill:white;"/>
    </g>
</svg>
